# xmcd
#
# Track frame offsets:
#	150
#	16735
#	39200
#	52875
#	71755
#	92772
#	110997
#	135827
#	148220
#	168953
#	185359
#	201213
#	213841
#	233047
#	251424
#	269103
#	279138
#	295851
#	312083
#	324933
#
# Disc length: 4530 seconds
#
# Revision: 0
# Processed by: cddbd v1.5.2PL0 Copyright (c) Steve Scherf et al.
# Submitted via: EasyCDDAExtractor 4.6.0.1
#
DISCID=1a11b014
DTITLE=Mirabela Daur - vol 27
DYEAR=1900
DGENRE=Ambient
TTITLE0=De ce nu-mi spui ca ma iubesti
TTITLE1=Insingurare
TTITLE2=Noapte de mai
TTITLE3=Melanconie
TTITLE4=Frunza mea albastra
TTITLE5=Te-astept sa vii
TTITLE6=Te uibesc orice-ar spune lumea
TTITLE7=Pentru tine dragoste
TTITLE8=Cine Iubeste
TTITLE9=Stai langa fruntea mea
TTITLE10=Nu te parasesc iubire
TTITLE11=Am sa ma-ntorc
TTITLE12=Asa-i viata
TTITLE13=Poveste de dragoste
TTITLE14=Tu
TTITLE15=Morarita
TTITLE16=Dormeau pe-o frunza doua stele
TTITLE17=Esti barbatul altei femei
TTITLE18=Ioane Ioane
TTITLE19=Ce dor mi-a fost de ochii tai
EXTD=
EXTT0=
EXTT1=
EXTT2=
EXTT3=
EXTT4=
EXTT5=
EXTT6=
EXTT7=
EXTT8=
EXTT9=
EXTT10=
EXTT11=
EXTT12=
EXTT13=
EXTT14=
EXTT15=
EXTT16=
EXTT17=
EXTT18=
EXTT19=
PLAYORDER=
